<svg viewBox="0 0 28 23" fill="none" xmlns="http://www.w3.org/2000/svg">
<path d="M9.8 14.0414C6.524 14.0414 0 15.9189 0 19.6579V22.4662H19.6V19.6579C19.6 15.9189 13.076 14.0414 9.8 14.0414ZM3.276 19.2568C4.452 18.326 7.294 17.2508 9.8 17.2508C12.306 17.2508 15.148 18.326 16.324 19.2568H3.276ZM9.8 11.2331C12.502 11.2331 14.7 8.71368 14.7 5.61655C14.7 2.51943 12.502 0 9.8 0C7.098 0 4.9 2.51943 4.9 5.61655C4.9 8.71368 7.098 11.2331 9.8 11.2331ZM9.8 3.20946C10.962 3.20946 11.9 4.28463 11.9 5.61655C11.9 6.94848 10.962 8.02365 9.8 8.02365C8.638 8.02365 7.7 6.94848 7.7 5.61655C7.7 4.28463 8.638 3.20946 9.8 3.20946ZM19.656 14.1377C21.28 15.4856 22.4 17.2829 22.4 19.6579V22.4662H28V19.6579C28 16.4164 23.1 14.5709 19.656 14.1377ZM18.2 11.2331C20.902 11.2331 23.1 8.71368 23.1 5.61655C23.1 2.51943 20.902 0 18.2 0C17.444 0 16.744 0.208615 16.1 0.561655C16.982 1.98986 17.5 3.73902 17.5 5.61655C17.5 7.49409 16.982 9.24324 16.1 10.6715C16.744 11.0245 17.444 11.2331 18.2 11.2331Z" fill="#344054"/>
</svg>
