<svg viewBox="0 0 28 28" fill="none" xmlns="http://www.w3.org/2000/svg">
<path d="M28 4.452L12.026 20.44L6.09 14.504L8.064 12.53L12.026 16.492L26.026 2.492L28 4.452ZM24.906 11.508C25.088 12.306 25.2 13.146 25.2 14C25.2 20.188 20.188 25.2 14 25.2C7.812 25.2 2.8 20.188 2.8 14C2.8 7.812 7.812 2.8 14 2.8C16.212 2.8 18.256 3.444 19.992 4.55L22.008 2.534C19.74 0.938 16.982 0 14 0C6.272 0 0 6.272 0 14C0 21.728 6.272 28 14 28C21.728 28 28 21.728 28 14C28 12.334 27.692 10.738 27.16 9.254L24.906 11.508Z" fill="#25B161"/>
</svg>
