<svg xmlns="http://www.w3.org/2000/svg" >
  <symbol
    id="etudiants"
    viewBox="0 0 45 25"
    fill="none">

    <path d="M22.7927 13.6244C24.7855 14.9613 26.1818 16.7725 26.1818 19.1875V23.5H32V19.1875C32 16.0537 26.8073 14.1994 22.7927 13.6244Z" fill="#1D2939" />
    <path d="M20.3636 12C23.5782 12 26.1818 9.42688 26.1818 6.25C26.1818 3.07312 23.5782 0.5 20.3636 0.5C19.68 0.5 19.04 0.64375 18.4291 0.845C19.6364 2.32562 20.3636 4.20875 20.3636 6.25C20.3636 8.29125 19.6364 10.1744 18.4291 11.655C19.04 11.8563 19.68 12 20.3636 12Z" fill="#1D2939" />
    <path d="M11.6364 12C14.8509 12 17.4545 9.42688 17.4545 6.25C17.4545 3.07312 14.8509 0.5 11.6364 0.5C8.42182 0.5 5.81818 3.07312 5.81818 6.25C5.81818 9.42688 8.42182 12 11.6364 12ZM11.6364 3.375C13.2364 3.375 14.5455 4.66875 14.5455 6.25C14.5455 7.83125 13.2364 9.125 11.6364 9.125C10.0364 9.125 8.72727 7.83125 8.72727 6.25C8.72727 4.66875 10.0364 3.375 11.6364 3.375Z" fill="#1D2939" />
    <path d="M11.6364 13.4375C7.75273 13.4375 0 15.3637 0 19.1875V23.5H23.2727V19.1875C23.2727 15.3637 15.52 13.4375 11.6364 13.4375ZM20.3636 20.625H2.90909V19.2019C3.2 18.1669 7.70909 16.3125 11.6364 16.3125C15.5636 16.3125 20.0727 18.1669 20.3636 19.1875V20.625Z" fill="#1D2939" />
  </symbol>

  <symbol
    id="icon-home"
    viewBox="0 0 24 24">
    <path d="M10 20v-6h4v6h5v-8h3L12 3 2 12h3v8z" />
  </symbol>

  <symbol
    id="duree"
    viewBox="0 0 26.8 29.5"
    fill="none" 
 xmlns="http://www.w3.org/2000/svg">

    <path d="M13.3333 0C20.6973 0 26.6667 6.56753 26.6667 14.6695C26.6667 22.7714 20.6973 29.339 13.3333 29.339C5.96933 29.339 0 22.7714 0 14.6695C0 6.56753 5.96933 0 13.3333 0ZM13.3333 2.9339C10.5044 2.9339 7.79125 4.17032 5.79086 6.37117C3.79047 8.57202 2.66667 11.557 2.66667 14.6695C2.66667 17.7819 3.79047 20.7669 5.79086 22.9678C7.79125 25.1686 10.5044 26.4051 13.3333 26.4051C16.1623 26.4051 18.8754 25.1686 20.8758 22.9678C22.8762 20.7669 24 17.7819 24 14.6695C24 11.557 22.8762 8.57202 20.8758 6.37117C18.8754 4.17032 16.1623 2.9339 13.3333 2.9339ZM13.3333 5.86779C13.6599 5.86784 13.9751 5.99975 14.2192 6.23851C14.4632 6.47727 14.6191 6.80627 14.6573 7.16311L14.6667 7.33474V14.0622L18.276 18.0332C18.5151 18.2972 18.654 18.6514 18.6643 19.0239C18.6746 19.3965 18.5557 19.7594 18.3317 20.0389C18.1076 20.3185 17.7953 20.4937 17.458 20.5291C17.1208 20.5644 16.784 20.4572 16.516 20.2292L16.3907 20.1075L12.3907 15.7066C12.1834 15.4784 12.0504 15.1814 12.012 14.8616L12 14.6695V7.33474C12 6.94568 12.1405 6.57256 12.3905 6.29745C12.6406 6.02234 12.9797 5.86779 13.3333 5.86779Z" fill="#1D2939" />
  </symbol>

  <symbol
    id="place"
    viewBox="0 0 32.9 24"
    fill="none"
    xmlns="http://www.w3.org/2000/svg">
    <path d="M22.7927 13.6244C24.7855 14.9613 26.1818 16.7725 26.1818 19.1875V23.5H32V19.1875C32 16.0537 26.8073 14.1994 22.7927 13.6244Z" fill="#1D2939" />
    <path d="M20.3636 12C23.5782 12 26.1818 9.42688 26.1818 6.25C26.1818 3.07312 23.5782 0.5 20.3636 0.5C19.68 0.5 19.04 0.64375 18.4291 0.845C19.6364 2.32562 20.3636 4.20875 20.3636 6.25C20.3636 8.29125 19.6364 10.1744 18.4291 11.655C19.04 11.8563 19.68 12 20.3636 12Z" fill="#1D2939" />
    <path d="M11.6364 12C14.8509 12 17.4545 9.42688 17.4545 6.25C17.4545 3.07312 14.8509 0.5 11.6364 0.5C8.42182 0.5 5.81818 3.07312 5.81818 6.25C5.81818 9.42688 8.42182 12 11.6364 12ZM11.6364 3.375C13.2364 3.375 14.5455 4.66875 14.5455 6.25C14.5455 7.83125 13.2364 9.125 11.6364 9.125C10.0364 9.125 8.72727 7.83125 8.72727 6.25C8.72727 4.66875 10.0364 3.375 11.6364 3.375Z" fill="#1D2939" />
    <path d="M11.6364 13.4375C7.75273 13.4375 0 15.3637 0 19.1875V23.5H23.2727V19.1875C23.2727 15.3637 15.52 13.4375 11.6364 13.4375ZM20.3636 20.625H2.90909V19.2019C3.2 18.1669 7.70909 16.3125 11.6364 16.3125C15.5636 16.3125 20.0727 18.1669 20.3636 19.1875V20.625Z" fill="#1D2939" />
  </symbol>

  <symbol
    id="certificat"
    viewBox="0 0 19 26"
    fill="none"
    xmlns="http://www.w3.org/2000/svg">
    <path d="M4.99989 19.6666V25L8.99989 22.3333L12.9999 25V19.6666M11.6092 2.69997L11.1786 2.10797C10.9284 1.76472 10.6006 1.48545 10.222 1.2929C9.84339 1.10036 9.42464 1 8.99989 1C8.57513 1 8.15639 1.10036 7.77778 1.2929C7.39917 1.48545 7.07141 1.76472 6.82122 2.10797L6.39055 2.69997L5.66655 2.58664C5.24701 2.52048 4.81776 2.55448 4.41386 2.68586C4.00996 2.81725 3.64286 3.04229 3.34253 3.34262C3.0422 3.64295 2.81716 4.01005 2.68578 4.41395C2.55439 4.81785 2.52039 5.24709 2.58655 5.66664L2.69989 6.39064L2.10789 6.82131C1.76414 7.07115 1.48438 7.39879 1.29149 7.77744C1.0986 8.1561 0.998047 8.57502 0.998047 8.99997C0.998047 9.42493 1.0986 9.84385 1.29149 10.2225C1.48438 10.6012 1.76414 10.9288 2.10789 11.1786L2.69989 11.6093L2.58655 12.332C2.52015 12.7516 2.55398 13.181 2.68526 13.5851C2.81653 13.9892 3.04155 14.3565 3.34191 14.6569C3.64227 14.9574 4.00946 15.1826 4.41347 15.3141C4.81749 15.4455 5.24688 15.4795 5.66655 15.4133L6.39055 15.3L6.82122 15.892C7.07141 16.2352 7.39917 16.5145 7.77778 16.707C8.15639 16.8996 8.57513 16.9999 8.99989 16.9999C9.42464 16.9999 9.84339 16.8996 10.222 16.707C10.6006 16.5145 10.9284 16.2352 11.1786 15.892L11.6092 15.3L12.3319 15.4133C12.7515 15.4797 13.1809 15.4459 13.585 15.3146C13.9891 15.1833 14.3564 14.9583 14.6569 14.658C14.9573 14.3576 15.1825 13.9904 15.314 13.5864C15.4454 13.1824 15.4794 12.753 15.4132 12.3333L15.2999 11.6093L15.8919 11.1786C16.2351 10.9284 16.5144 10.6007 16.707 10.2221C16.8995 9.84347 16.9999 9.42473 16.9999 8.99997C16.9999 8.57522 16.8995 8.15647 16.707 7.77787C16.5144 7.39926 16.2351 7.0715 15.8919 6.82131L15.2999 6.39064L15.4132 5.66797C15.4796 5.24833 15.4458 4.81893 15.3145 4.41485C15.1832 4.01078 14.9582 3.64349 14.6579 3.343C14.3575 3.04251 13.9903 2.81734 13.5863 2.68589C13.1823 2.55443 12.7529 2.52042 12.3332 2.58664L11.6092 2.69997Z" stroke="#1D2939" stroke-width="2" stroke-linecap="round" stroke-linejoin="round" />
  </symbol>

  <symbol
    id="fleche"
    viewBox="0 0 18 17"
    fill="none"
    xmlns="http://www.w3.org/2000/svg">
    <path d="M9 0L7.50187 1.49812L13.4306 7.4375H0.5V9.5625H13.4306L7.50187 15.5019L9 17L17.5 8.5L9 0Z" fill="white" />
  </symbol>













  <symbol
    id="location"
    viewBox="0 0 24 24"
    fill="none"
    xmlns="http://www.w3.org/2000/svg">
    <path d="M5.34008 17.7432C3.37924 18.3314 2.16699 19.1439 2.16699 20.0415C2.16699 21.8365 7.01708 23.2915 13.0003 23.2915C18.9836 23.2915 23.8337 21.8365 23.8337 20.0415C23.8337 19.1439 22.6209 18.3314 20.6606 17.7432" stroke="white" stroke-width="2" stroke-linecap="round" stroke-linejoin="round" />
    <path d="M13.0007 18.9582C13.0007 18.9582 20.0423 14.3562 20.0423 9.03592C20.0423 5.24209 16.8898 2.1665 13.0007 2.1665C9.11148 2.1665 5.95898 5.24209 5.95898 9.03592C5.95898 14.3562 13.0007 18.9582 13.0007 18.9582Z" stroke="white" stroke-width="2" stroke-linejoin="round" />
    <path d="M13.0003 11.9167C13.7186 11.9167 14.4075 11.6313 14.9154 11.1234C15.4233 10.6155 15.7087 9.92663 15.7087 9.20833C15.7087 8.49004 15.4233 7.80116 14.9154 7.29325C14.4075 6.78534 13.7186 6.5 13.0003 6.5C12.282 6.5 11.5932 6.78534 11.0852 7.29325C10.5773 7.80116 10.292 8.49004 10.292 9.20833C10.292 9.92663 10.5773 10.6155 11.0852 11.1234C11.5932 11.6313 12.282 11.9167 13.0003 11.9167Z" stroke="white" stroke-width="2" stroke-linejoin="round" />
  </symbol>

  <symbol
    id="phone"
    viewBox="0 0 22 24"
    xmlns="http://www.w3.org/2000/svg"
    fill="none"
  >
    <path
      fill-rule="evenodd"
      clip-rule="evenodd"
      d="M6.85292 15.1483C11.0183 19.3137 14.8783 19.7698 16.0114 19.812C17.3808 19.8618 18.7783 18.7438 19.3828 17.5988C18.4186 16.4678 17.163 15.5903 15.7883 14.6391C14.9768 15.4494 13.9769 16.9553 12.6455 16.4158C11.8883 16.1113 10.0184 15.2501 8.38475 13.6153C6.75109 11.9806 5.88983 10.1118 5.58325 9.35567C5.04375 8.02209 6.55392 7.02001 7.36534 6.20859C6.41417 4.81109 5.55184 3.52301 4.423 2.60759C3.26167 3.21426 2.13717 4.60092 2.18808 5.98867C2.23033 7.12184 2.68642 10.9818 6.85292 15.1483ZM15.9313 21.9776C14.3713 21.9202 9.95017 21.3092 5.32 16.6801C0.690919 12.0499 0.0810017 7.62992 0.0225017 6.06884C-0.0641649 3.68984 1.758 1.37909 3.86292 0.476672C4.11639 0.36722 4.39397 0.325548 4.66841 0.355746C4.94285 0.385944 5.20472 0.486974 5.42833 0.648922C7.17033 1.91967 8.37175 3.84476 9.40417 5.35276C9.61894 5.66633 9.71733 6.04512 9.68231 6.42357C9.64729 6.80202 9.48108 7.15633 9.21242 7.42517L7.74342 8.89526C8.08467 9.64817 8.77909 10.946 9.91658 12.0835C11.0541 13.221 12.3519 13.9154 13.1059 14.2567L14.5738 12.7877C14.8434 12.5179 15.1992 12.3515 15.5791 12.3176C15.959 12.2838 16.3386 12.3846 16.6517 12.6024C18.19 13.6684 19.997 14.8525 21.3143 16.5393C21.4894 16.7645 21.6008 17.0326 21.6368 17.3156C21.6728 17.5986 21.6322 17.8861 21.5191 18.148C20.6123 20.2638 18.3178 22.0653 15.9313 21.9776Z"
      fill="white"
    />
  </symbol>

  <symbol
    id="email"
    viewBox="0 0 26 21.7"
    fill="none"
    xmlns="http://www.w3.org/2000/svg">
    <path d="M26 3.125C26 1.68125 24.83 0.5 23.4 0.5H2.6C1.17 0.5 0 1.68125 0 3.125V18.875C0 20.3188 1.17 21.5 2.6 21.5H23.4C24.83 21.5 26 20.3188 26 18.875V3.125ZM23.4 3.125L13 9.6875L2.6 3.125H23.4ZM23.4 18.875H2.6V5.75L13 12.3125L23.4 5.75V18.875Z" fill="white" />
  </symbol>
</svg>
