<svg viewBox="0 0 20 22" fill="none" xmlns="http://www.w3.org/2000/svg">
<path d="M3.43786 0L2.43214 1.1253L3.92857 2.80123L4.93286 1.67594L3.43786 0ZM16.5629 0L15.0664 1.67594L16.0714 2.80123L17.5671 1.1261L16.5629 0ZM10 0.49942C9.76429 0.501554 9.52619 0.518629 9.28571 0.550643H9.26429C6.36714 0.922807 4.06143 3.54556 3.66071 6.77739C3.34071 9.37853 4.29786 11.7372 5.89286 13.2562C6.5452 13.8802 6.98648 14.7364 7.14286 15.6813V20.4834H8.77143C9.02 20.9612 9.47357 21.2838 10 21.2838C10.5264 21.2838 10.98 20.9612 11.2286 20.4834H12.8571V17.282H12.9243V16.3312C12.9243 15.1579 13.4686 13.975 14.3529 13.0554C15.5357 11.7284 16.4286 9.84354 16.4286 7.67858C16.4286 3.72484 13.5243 0.462604 10 0.49942ZM10 2.10013C12.7607 2.05691 15 4.58922 15 7.67858C15 9.35452 14.3071 10.8304 13.3479 11.9044L13.3707 11.9301C12.4178 12.9154 11.8014 14.2423 11.6279 15.6821H8.50357C8.34643 14.3103 7.82143 12.9825 6.82929 12.0301C5.56714 10.8296 4.815 9.02078 5.06643 6.97828C5.37857 4.45716 7.20429 2.42987 9.44143 2.15215C9.62615 2.12345 9.81215 2.10635 9.99857 2.10093L10 2.10013ZM0 7.67858V9.27929H2.14286V7.67858H0ZM17.8571 7.67858V9.27929H20V7.67858H17.8571ZM3.92857 14.1566L2.43286 15.8318L3.43786 16.9579L4.93214 15.2819L3.92857 14.1566ZM16.0714 14.1566L15.0671 15.2819L16.5621 16.9579L17.5671 15.8318L16.0714 14.1566ZM8.57143 17.2828H11.4286V18.8835H8.57143V17.2828Z" fill="black"/>
</svg>
