<svg viewBox="0 0 26 24" fill="none" xmlns="http://www.w3.org/2000/svg">
<path d="M9.45455 24H20.0909C21.0718 24 21.9109 23.4 22.2655 22.536L25.8345 14.076C25.9409 13.8 26 13.512 26 13.2V10.8C26 9.48 24.9364 8.4 23.6364 8.4H16.1791L17.3018 2.916L17.3373 2.532C17.3373 2.04 17.1364 1.584 16.8173 1.26L15.5645 0L7.77636 7.908C7.35091 8.34 7.09091 8.94 7.09091 9.6V21.6C7.09091 22.92 8.15454 24 9.45455 24ZM9.45455 9.6L14.5836 4.392L13 10.8H23.6364V13.2L20.0909 21.6H9.45455V9.6ZM0 9.6H4.72727V24H0V9.6Z" fill="#344054"/>
</svg>
