<svg viewBox="0 0 22 24" fill="none" xmlns="http://www.w3.org/2000/svg">
<path fill-rule="evenodd" clip-rule="evenodd" d="M6.85292 15.1483C11.0183 19.3137 14.8783 19.7698 16.0114 19.812C17.3808 19.8618 18.7783 18.7438 19.3828 17.5988C18.4186 16.4678 17.163 15.5903 15.7883 14.6391C14.9768 15.4494 13.9769 16.9553 12.6455 16.4158C11.8883 16.1113 10.0184 15.2501 8.38475 13.6153C6.75109 11.9806 5.88983 10.1118 5.58325 9.35567C5.04375 8.02209 6.55392 7.02001 7.36534 6.20859C6.41417 4.81109 5.55184 3.52301 4.423 2.60759C3.26167 3.21426 2.13717 4.60092 2.18808 5.98867C2.23033 7.12184 2.68642 10.9818 6.85292 15.1483ZM15.9313 21.9776C14.3713 21.9202 9.95017 21.3092 5.32 16.6801C0.690919 12.0499 0.0810017 7.62992 0.0225017 6.06884C-0.0641649 3.68984 1.758 1.37909 3.86292 0.476672C4.11639 0.36722 4.39397 0.325548 4.66841 0.355746C4.94285 0.385944 5.20472 0.486974 5.42833 0.648922C7.17033 1.91967 8.37175 3.84476 9.40417 5.35276C9.61894 5.66633 9.71733 6.04512 9.68231 6.42357C9.64729 6.80202 9.48108 7.15633 9.21242 7.42517L7.74342 8.89526C8.08467 9.64817 8.77909 10.946 9.91658 12.0835C11.0541 13.221 12.3519 13.9154 13.1059 14.2567L14.5738 12.7877C14.8434 12.5179 15.1992 12.3515 15.5791 12.3176C15.959 12.2838 16.3386 12.3846 16.6517 12.6024C18.19 13.6684 19.997 14.8525 21.3143 16.5393C21.4894 16.7645 21.6008 17.0326 21.6368 17.3156C21.6728 17.5986 21.6322 17.8861 21.5191 18.148C20.6123 20.2638 18.3178 22.0653 15.9313 21.9776Z" fill="white"/>
</svg>
