<svg xmlns="http://www.w3.org/2000/svg" >
  <symbol
    id="etudiants"
    viewBox="0 0 45 25"
    fill="none">

    <path d="M22.7927 13.6244C24.7855 14.9613 26.1818 16.7725 26.1818 19.1875V23.5H32V19.1875C32 16.0537 26.8073 14.1994 22.7927 13.6244Z" fill="#1D2939" />
    <path d="M20.3636 12C23.5782 12 26.1818 9.42688 26.1818 6.25C26.1818 3.07312 23.5782 0.5 20.3636 0.5C19.68 0.5 19.04 0.64375 18.4291 0.845C19.6364 2.32562 20.3636 4.20875 20.3636 6.25C20.3636 8.29125 19.6364 10.1744 18.4291 11.655C19.04 11.8563 19.68 12 20.3636 12Z" fill="#1D2939" />
    <path d="M11.6364 12C14.8509 12 17.4545 9.42688 17.4545 6.25C17.4545 3.07312 14.8509 0.5 11.6364 0.5C8.42182 0.5 5.81818 3.07312 5.81818 6.25C5.81818 9.42688 8.42182 12 11.6364 12ZM11.6364 3.375C13.2364 3.375 14.5455 4.66875 14.5455 6.25C14.5455 7.83125 13.2364 9.125 11.6364 9.125C10.0364 9.125 8.72727 7.83125 8.72727 6.25C8.72727 4.66875 10.0364 3.375 11.6364 3.375Z" fill="#1D2939" />
    <path d="M11.6364 13.4375C7.75273 13.4375 0 15.3637 0 19.1875V23.5H23.2727V19.1875C23.2727 15.3637 15.52 13.4375 11.6364 13.4375ZM20.3636 20.625H2.90909V19.2019C3.2 18.1669 7.70909 16.3125 11.6364 16.3125C15.5636 16.3125 20.0727 18.1669 20.3636 19.1875V20.625Z" fill="#1D2939" />
  </symbol>

  <symbol
    id="icon-home"
    viewBox="0 0 24 24">
    <path d="M10 20v-6h4v6h5v-8h3L12 3 2 12h3v8z" />
  </symbol>

  <symbol
    id="duree"
    viewBox="0 0 26.8 29.5"
    fill="none" 
 xmlns="http://www.w3.org/2000/svg">

    <path d="M13.3333 0C20.6973 0 26.6667 6.56753 26.6667 14.6695C26.6667 22.7714 20.6973 29.339 13.3333 29.339C5.96933 29.339 0 22.7714 0 14.6695C0 6.56753 5.96933 0 13.3333 0ZM13.3333 2.9339C10.5044 2.9339 7.79125 4.17032 5.79086 6.37117C3.79047 8.57202 2.66667 11.557 2.66667 14.6695C2.66667 17.7819 3.79047 20.7669 5.79086 22.9678C7.79125 25.1686 10.5044 26.4051 13.3333 26.4051C16.1623 26.4051 18.8754 25.1686 20.8758 22.9678C22.8762 20.7669 24 17.7819 24 14.6695C24 11.557 22.8762 8.57202 20.8758 6.37117C18.8754 4.17032 16.1623 2.9339 13.3333 2.9339ZM13.3333 5.86779C13.6599 5.86784 13.9751 5.99975 14.2192 6.23851C14.4632 6.47727 14.6191 6.80627 14.6573 7.16311L14.6667 7.33474V14.0622L18.276 18.0332C18.5151 18.2972 18.654 18.6514 18.6643 19.0239C18.6746 19.3965 18.5557 19.7594 18.3317 20.0389C18.1076 20.3185 17.7953 20.4937 17.458 20.5291C17.1208 20.5644 16.784 20.4572 16.516 20.2292L16.3907 20.1075L12.3907 15.7066C12.1834 15.4784 12.0504 15.1814 12.012 14.8616L12 14.6695V7.33474C12 6.94568 12.1405 6.57256 12.3905 6.29745C12.6406 6.02234 12.9797 5.86779 13.3333 5.86779Z" fill="#1D2939" />
  </symbol>

  <symbol
    id="place"
    viewBox="0 0 32.9 24"
    fill="none"
    xmlns="http://www.w3.org/2000/svg">
    <path d="M22.7927 13.6244C24.7855 14.9613 26.1818 16.7725 26.1818 19.1875V23.5H32V19.1875C32 16.0537 26.8073 14.1994 22.7927 13.6244Z" fill="#1D2939" />
    <path d="M20.3636 12C23.5782 12 26.1818 9.42688 26.1818 6.25C26.1818 3.07312 23.5782 0.5 20.3636 0.5C19.68 0.5 19.04 0.64375 18.4291 0.845C19.6364 2.32562 20.3636 4.20875 20.3636 6.25C20.3636 8.29125 19.6364 10.1744 18.4291 11.655C19.04 11.8563 19.68 12 20.3636 12Z" fill="#1D2939" />
    <path d="M11.6364 12C14.8509 12 17.4545 9.42688 17.4545 6.25C17.4545 3.07312 14.8509 0.5 11.6364 0.5C8.42182 0.5 5.81818 3.07312 5.81818 6.25C5.81818 9.42688 8.42182 12 11.6364 12ZM11.6364 3.375C13.2364 3.375 14.5455 4.66875 14.5455 6.25C14.5455 7.83125 13.2364 9.125 11.6364 9.125C10.0364 9.125 8.72727 7.83125 8.72727 6.25C8.72727 4.66875 10.0364 3.375 11.6364 3.375Z" fill="#1D2939" />
    <path d="M11.6364 13.4375C7.75273 13.4375 0 15.3637 0 19.1875V23.5H23.2727V19.1875C23.2727 15.3637 15.52 13.4375 11.6364 13.4375ZM20.3636 20.625H2.90909V19.2019C3.2 18.1669 7.70909 16.3125 11.6364 16.3125C15.5636 16.3125 20.0727 18.1669 20.3636 19.1875V20.625Z" fill="#1D2939" />
  </symbol>

  <symbol
    id="certificat"
    viewBox="0 0 19 26"
    fill="none"
    xmlns="http://www.w3.org/2000/svg">
    <path d="M4.99989 19.6666V25L8.99989 22.3333L12.9999 25V19.6666M11.6092 2.69997L11.1786 2.10797C10.9284 1.76472 10.6006 1.48545 10.222 1.2929C9.84339 1.10036 9.42464 1 8.99989 1C8.57513 1 8.15639 1.10036 7.77778 1.2929C7.39917 1.48545 7.07141 1.76472 6.82122 2.10797L6.39055 2.69997L5.66655 2.58664C5.24701 2.52048 4.81776 2.55448 4.41386 2.68586C4.00996 2.81725 3.64286 3.04229 3.34253 3.34262C3.0422 3.64295 2.81716 4.01005 2.68578 4.41395C2.55439 4.81785 2.52039 5.24709 2.58655 5.66664L2.69989 6.39064L2.10789 6.82131C1.76414 7.07115 1.48438 7.39879 1.29149 7.77744C1.0986 8.1561 0.998047 8.57502 0.998047 8.99997C0.998047 9.42493 1.0986 9.84385 1.29149 10.2225C1.48438 10.6012 1.76414 10.9288 2.10789 11.1786L2.69989 11.6093L2.58655 12.332C2.52015 12.7516 2.55398 13.181 2.68526 13.5851C2.81653 13.9892 3.04155 14.3565 3.34191 14.6569C3.64227 14.9574 4.00946 15.1826 4.41347 15.3141C4.81749 15.4455 5.24688 15.4795 5.66655 15.4133L6.39055 15.3L6.82122 15.892C7.07141 16.2352 7.39917 16.5145 7.77778 16.707C8.15639 16.8996 8.57513 16.9999 8.99989 16.9999C9.42464 16.9999 9.84339 16.8996 10.222 16.707C10.6006 16.5145 10.9284 16.2352 11.1786 15.892L11.6092 15.3L12.3319 15.4133C12.7515 15.4797 13.1809 15.4459 13.585 15.3146C13.9891 15.1833 14.3564 14.9583 14.6569 14.658C14.9573 14.3576 15.1825 13.9904 15.314 13.5864C15.4454 13.1824 15.4794 12.753 15.4132 12.3333L15.2999 11.6093L15.8919 11.1786C16.2351 10.9284 16.5144 10.6007 16.707 10.2221C16.8995 9.84347 16.9999 9.42473 16.9999 8.99997C16.9999 8.57522 16.8995 8.15647 16.707 7.77787C16.5144 7.39926 16.2351 7.0715 15.8919 6.82131L15.2999 6.39064L15.4132 5.66797C15.4796 5.24833 15.4458 4.81893 15.3145 4.41485C15.1832 4.01078 14.9582 3.64349 14.6579 3.343C14.3575 3.04251 13.9903 2.81734 13.5863 2.68589C13.1823 2.55443 12.7529 2.52042 12.3332 2.58664L11.6092 2.69997Z" stroke="#1D2939" stroke-width="2" stroke-linecap="round" stroke-linejoin="round" />
  </symbol>

  <symbol
    id="fleche"
    viewBox="0 0 18 17"
    fill="none"
    xmlns="http://www.w3.org/2000/svg">
    <path d="M9 0L7.50187 1.49812L13.4306 7.4375H0.5V9.5625H13.4306L7.50187 15.5019L9 17L17.5 8.5L9 0Z" fill="white" />
  </symbol>













  <symbol
    id="location"
    viewBox="0 0 24 24"
    fill="none"
    xmlns="http://www.w3.org/2000/svg">
    <path d="M5.34008 17.7432C3.37924 18.3314 2.16699 19.1439 2.16699 20.0415C2.16699 21.8365 7.01708 23.2915 13.0003 23.2915C18.9836 23.2915 23.8337 21.8365 23.8337 20.0415C23.8337 19.1439 22.6209 18.3314 20.6606 17.7432" stroke="white" stroke-width="2" stroke-linecap="round" stroke-linejoin="round" />
    <path d="M13.0007 18.9582C13.0007 18.9582 20.0423 14.3562 20.0423 9.03592C20.0423 5.24209 16.8898 2.1665 13.0007 2.1665C9.11148 2.1665 5.95898 5.24209 5.95898 9.03592C5.95898 14.3562 13.0007 18.9582 13.0007 18.9582Z" stroke="white" stroke-width="2" stroke-linejoin="round" />
    <path d="M13.0003 11.9167C13.7186 11.9167 14.4075 11.6313 14.9154 11.1234C15.4233 10.6155 15.7087 9.92663 15.7087 9.20833C15.7087 8.49004 15.4233 7.80116 14.9154 7.29325C14.4075 6.78534 13.7186 6.5 13.0003 6.5C12.282 6.5 11.5932 6.78534 11.0852 7.29325C10.5773 7.80116 10.292 8.49004 10.292 9.20833C10.292 9.92663 10.5773 10.6155 11.0852 11.1234C11.5932 11.6313 12.282 11.9167 13.0003 11.9167Z" stroke="white" stroke-width="2" stroke-linejoin="round" />
  </symbol>

  <symbol
    id="phone"
    viewBox="0 0 22 24"
    xmlns="http://www.w3.org/2000/svg"
    fill="none"
  >
    <path
      fill-rule="evenodd"
      clip-rule="evenodd"
      d="M6.85292 15.1483C11.0183 19.3137 14.8783 19.7698 16.0114 19.812C17.3808 19.8618 18.7783 18.7438 19.3828 17.5988C18.4186 16.4678 17.163 15.5903 15.7883 14.6391C14.9768 15.4494 13.9769 16.9553 12.6455 16.4158C11.8883 16.1113 10.0184 15.2501 8.38475 13.6153C6.75109 11.9806 5.88983 10.1118 5.58325 9.35567C5.04375 8.02209 6.55392 7.02001 7.36534 6.20859C6.41417 4.81109 5.55184 3.52301 4.423 2.60759C3.26167 3.21426 2.13717 4.60092 2.18808 5.98867C2.23033 7.12184 2.68642 10.9818 6.85292 15.1483ZM15.9313 21.9776C14.3713 21.9202 9.95017 21.3092 5.32 16.6801C0.690919 12.0499 0.0810017 7.62992 0.0225017 6.06884C-0.0641649 3.68984 1.758 1.37909 3.86292 0.476672C4.11639 0.36722 4.39397 0.325548 4.66841 0.355746C4.94285 0.385944 5.20472 0.486974 5.42833 0.648922C7.17033 1.91967 8.37175 3.84476 9.40417 5.35276C9.61894 5.66633 9.71733 6.04512 9.68231 6.42357C9.64729 6.80202 9.48108 7.15633 9.21242 7.42517L7.74342 8.89526C8.08467 9.64817 8.77909 10.946 9.91658 12.0835C11.0541 13.221 12.3519 13.9154 13.1059 14.2567L14.5738 12.7877C14.8434 12.5179 15.1992 12.3515 15.5791 12.3176C15.959 12.2838 16.3386 12.3846 16.6517 12.6024C18.19 13.6684 19.997 14.8525 21.3143 16.5393C21.4894 16.7645 21.6008 17.0326 21.6368 17.3156C21.6728 17.5986 21.6322 17.8861 21.5191 18.148C20.6123 20.2638 18.3178 22.0653 15.9313 21.9776Z"
      fill="white"
    />
  </symbol>

  <symbol
    id="email"
    viewBox="0 0 26 21.7"
    fill="none"
    xmlns="http://www.w3.org/2000/svg">
    <path d="M26 3.125C26 1.68125 24.83 0.5 23.4 0.5H2.6C1.17 0.5 0 1.68125 0 3.125V18.875C0 20.3188 1.17 21.5 2.6 21.5H23.4C24.83 21.5 26 20.3188 26 18.875V3.125ZM23.4 3.125L13 9.6875L2.6 3.125H23.4ZM23.4 18.875H2.6V5.75L13 12.3125L23.4 5.75V18.875Z" fill="white" />
  </symbol>
  
  
  
  
  
  <symbol 
   id="accompagnement"
   width="1.5em"
height="1.5em"
  viewBox="0 0 28 23" 
  fill="none" 
  xmlns="http://www.w3.org/2000/svg">
<path d="M9.8 14.0414C6.524 14.0414 0 15.9189 0 19.6579V22.4662H19.6V19.6579C19.6 15.9189 13.076 14.0414 9.8 14.0414ZM3.276 19.2568C4.452 18.326 7.294 17.2508 9.8 17.2508C12.306 17.2508 15.148 18.326 16.324 19.2568H3.276ZM9.8 11.2331C12.502 11.2331 14.7 8.71368 14.7 5.61655C14.7 2.51943 12.502 0 9.8 0C7.098 0 4.9 2.51943 4.9 5.61655C4.9 8.71368 7.098 11.2331 9.8 11.2331ZM9.8 3.20946C10.962 3.20946 11.9 4.28463 11.9 5.61655C11.9 6.94848 10.962 8.02365 9.8 8.02365C8.638 8.02365 7.7 6.94848 7.7 5.61655C7.7 4.28463 8.638 3.20946 9.8 3.20946ZM19.656 14.1377C21.28 15.4856 22.4 17.2829 22.4 19.6579V22.4662H28V19.6579C28 16.4164 23.1 14.5709 19.656 14.1377ZM18.2 11.2331C20.902 11.2331 23.1 8.71368 23.1 5.61655C23.1 2.51943 20.902 0 18.2 0C17.444 0 16.744 0.208615 16.1 0.561655C16.982 1.98986 17.5 3.73902 17.5 5.61655C17.5 7.49409 16.982 9.24324 16.1 10.6715C16.744 11.0245 17.444 11.2331 18.2 11.2331Z" fill="#344054"/>
</symbol>

<symbol id="ham"
viewBox="3 5 18 14" 
fill="none" 
xmlns="http://www.w3.org/2000/svg">
<path d="M4 18L20 18" stroke="#000000" stroke-width="2" stroke-linecap="round"/>
<path d="M4 12L20 12" stroke="#000000" stroke-width="2" stroke-linecap="round"/>
<path d="M4 6L20 6" stroke="#000000" stroke-width="2" stroke-linecap="round"/>
</symbol>

<symbol 
id="choix"
width="1em"
height="1.4em"
viewBox="0 0 28 28" 
fill="none" 
xmlns="http://www.w3.org/2000/svg">
<path d="M28 4.452L12.026 20.44L6.09 14.504L8.064 12.53L12.026 16.492L26.026 2.492L28 4.452ZM24.906 11.508C25.088 12.306 25.2 13.146 25.2 14C25.2 20.188 20.188 25.2 14 25.2C7.812 25.2 2.8 20.188 2.8 14C2.8 7.812 7.812 2.8 14 2.8C16.212 2.8 18.256 3.444 19.992 4.55L22.008 2.534C19.74 0.938 16.982 0 14 0C6.272 0 0 6.272 0 14C0 21.728 6.272 28 14 28C21.728 28 28 21.728 28 14C28 12.334 27.692 10.738 27.16 9.254L24.906 11.508Z" fill="#25B161"/>
</symbol>

<symbol 
id="innovation" 
viewBox="0 0 20 22" 
fill="none" 
xmlns="http://www.w3.org/2000/svg">
<path d="M3.43786 0L2.43214 1.1253L3.92857 2.80123L4.93286 1.67594L3.43786 0ZM16.5629 0L15.0664 1.67594L16.0714 2.80123L17.5671 1.1261L16.5629 0ZM10 0.49942C9.76429 0.501554 9.52619 0.518629 9.28571 0.550643H9.26429C6.36714 0.922807 4.06143 3.54556 3.66071 6.77739C3.34071 9.37853 4.29786 11.7372 5.89286 13.2562C6.5452 13.8802 6.98648 14.7364 7.14286 15.6813V20.4834H8.77143C9.02 20.9612 9.47357 21.2838 10 21.2838C10.5264 21.2838 10.98 20.9612 11.2286 20.4834H12.8571V17.282H12.9243V16.3312C12.9243 15.1579 13.4686 13.975 14.3529 13.0554C15.5357 11.7284 16.4286 9.84354 16.4286 7.67858C16.4286 3.72484 13.5243 0.462604 10 0.49942ZM10 2.10013C12.7607 2.05691 15 4.58922 15 7.67858C15 9.35452 14.3071 10.8304 13.3479 11.9044L13.3707 11.9301C12.4178 12.9154 11.8014 14.2423 11.6279 15.6821H8.50357C8.34643 14.3103 7.82143 12.9825 6.82929 12.0301C5.56714 10.8296 4.815 9.02078 5.06643 6.97828C5.37857 4.45716 7.20429 2.42987 9.44143 2.15215C9.62615 2.12345 9.81215 2.10635 9.99857 2.10093L10 2.10013ZM0 7.67858V9.27929H2.14286V7.67858H0ZM17.8571 7.67858V9.27929H20V7.67858H17.8571ZM3.92857 14.1566L2.43286 15.8318L3.43786 16.9579L4.93214 15.2819L3.92857 14.1566ZM16.0714 14.1566L15.0671 15.2819L16.5621 16.9579L17.5671 15.8318L16.0714 14.1566ZM8.57143 17.2828H11.4286V18.8835H8.57143V17.2828Z" fill="black"/>
</symbol>

<symbol 
id="insertion" 
viewBox="0 0 23 14" 
fill="none" 
xmlns="http://www.w3.org/2000/svg">
<path d="M6.83333 6.85186L11.7835 12.7051L21.6815 1M1 6.85186L5.95017 12.7051M15.8493 1L12.0833 5.49305" stroke="black" stroke-width="2" stroke-linecap="round" stroke-linejoin="round"/>
</symbol>

<symbol id="like" width="1.5em" height="1.5em" viewBox="0 0 26 24" fill="none" xmlns="http://www.w3.org/2000/svg">
<path d="M9.45455 24H20.0909C21.0718 24 21.9109 23.4 22.2655 22.536L25.8345 14.076C25.9409 13.8 26 13.512 26 13.2V10.8C26 9.48 24.9364 8.4 23.6364 8.4H16.1791L17.3018 2.916L17.3373 2.532C17.3373 2.04 17.1364 1.584 16.8173 1.26L15.5645 0L7.77636 7.908C7.35091 8.34 7.09091 8.94 7.09091 9.6V21.6C7.09091 22.92 8.15454 24 9.45455 24ZM9.45455 9.6L14.5836 4.392L13 10.8H23.6364V13.2L20.0909 21.6H9.45455V9.6ZM0 9.6H4.72727V24H0V9.6Z" fill="#344054"/>
</symbol>

  <svg
  	id="notify"
    viewBox="0 0 23 26"
    fill="none"
    xmlns="http://www.w3.org/2000/svg">
    <path d="M10.5312 25.75C11.9062 25.75 13.0312 24.5962 13.0312 23.1859H8.03125C8.03125 24.5962 9.15625 25.75 10.5312 25.75ZM18.0312 18.0577V11.6474C18.0312 7.71154 15.9937 4.41667 12.4062 3.54487V2.67308C12.4062 1.60897 11.5688 0.75 10.5312 0.75C9.49375 0.75 8.65625 1.60897 8.65625 2.67308V3.54487C5.08125 4.41667 3.03125 7.69872 3.03125 11.6474V18.0577L0.53125 20.6218V21.9038H20.5312V20.6218L18.0312 18.0577ZM15.5312 19.3397H5.53125V11.6474C5.53125 8.46795 7.41875 5.87821 10.5312 5.87821C13.6438 5.87821 15.5312 8.46795 15.5312 11.6474V19.3397Z" fill="#344054" />
    <path d="M17.4688 0.650391C20.0128 0.650391 22.0684 2.70591 22.0684 5.25C22.0684 7.79409 20.0128 9.84961 17.4688 9.84961C14.9247 9.84961 12.8691 7.79409 12.8691 5.25C12.8691 2.70591 14.9247 0.650391 17.4688 0.650391Z" fill="#FF2424" stroke="white" stroke-width="0.8" />
  </svg>





</svg>
