<svg
    viewBox="0 0 26 24"
    fill="none"
    xmlns="http://www.w3.org/2000/svg">
    <path d="M5.34008 17.7432C3.37924 18.3314 2.16699 19.1439 2.16699 20.0415C2.16699 21.8365 7.01708 23.2915 13.0003 23.2915C18.9836 23.2915 23.8337 21.8365 23.8337 20.0415C23.8337 19.1439 22.6209 18.3314 20.6606 17.7432" stroke="white" stroke-width="2" stroke-linecap="round" stroke-linejoin="round" />
    <path d="M13.0007 18.9582C13.0007 18.9582 20.0423 14.3562 20.0423 9.03592C20.0423 5.24209 16.8898 2.1665 13.0007 2.1665C9.11148 2.1665 5.95898 5.24209 5.95898 9.03592C5.95898 14.3562 13.0007 18.9582 13.0007 18.9582Z" stroke="white" stroke-width="2" stroke-linejoin="round" />
    <path d="M13.0003 11.9167C13.7186 11.9167 14.4075 11.6313 14.9154 11.1234C15.4233 10.6155 15.7087 9.92663 15.7087 9.20833C15.7087 8.49004 15.4233 7.80116 14.9154 7.29325C14.4075 6.78534 13.7186 6.5 13.0003 6.5C12.282 6.5 11.5932 6.78534 11.0852 7.29325C10.5773 7.80116 10.292 8.49004 10.292 9.20833C10.292 9.92663 10.5773 10.6155 11.0852 11.1234C11.5932 11.6313 12.282 11.9167 13.0003 11.9167Z" stroke="white" stroke-width="2" stroke-linejoin="round" />
  </svg>
